# xmcd
#
# Track frame offsets:
#	182
#	10205
#	21685
#	35027
#	45552
#	58012
#	68537
#	82860
#	93845
#	115032
#	126140
#	143275
#	156797
#	168042
#	180045
#	189937
#
# Disc length: 2671 seconds
#
# Revision: 0
# Processed by: cddbd v1.5.1PL0 Copyright (c) Steve Scherf et al.
# Submitted via: dBpowerAMP V4.0
#
DISCID=b60a6d10
DTITLE=Connie Francis - The Very Best Of
DYEAR=1994
DGENRE=
TTITLE0=Who`s Sorry Now
TTITLE1=Everybody`s Somebody`s Fool
TTITLE2=Don`t Break The Heart That Loves You
TTITLE3=My Happiness
TTITLE4=Frankie
TTITLE5=Among My Souvenir
TTITLE6=Are You Lonesome Tonight
TTITLE7=My Heart Has A Mind Of It`s Own
TTITLE8=Torn Between Two Lovers
TTITLE9=I`m Gonna Be Warm This Winter
TTITLE10=Hurt
TTITLE11=Cry
TTITLE12=Breakin` In A Brand New Broken Heart
TTITLE13=V.A.C.A.T.I.O.N.
TTITLE14=Stupid Cupid
TTITLE15=Lipstick On Your Collar
EXTD=
EXTT0=
EXTT1=
EXTT2=
EXTT3=
EXTT4=
EXTT5=
EXTT6=
EXTT7=
EXTT8=
EXTT9=
EXTT10=
EXTT11=
EXTT12=
EXTT13=
EXTT14=
EXTT15=
PLAYORDER=
